<?xml version="1.0" encoding="utf-8"?>
<!-- Generator: Adobe Illustrator 16.0.0, SVG Export Plug-In . SVG Version: 6.00 Build 0)  -->
<!DOCTYPE svg PUBLIC "-//W3C//DTD SVG 1.1//EN" "http://www.w3.org/Graphics/SVG/1.1/DTD/svg11.dtd">
<svg version="1.1" id="Layer_1" xmlns="http://www.w3.org/2000/svg" xmlns:xlink="http://www.w3.org/1999/xlink" x="0px" y="0px"
	 width="1184.6px" height="300px" viewBox="0 0 1184.6 300" enable-background="new 0 0 1184.6 300" xml:space="preserve">
<g>
	<g>
		<g>
			<g>
				<g>
					<path fill="#F44502" d="M387.006,191.016c2.713,0.182,4.529,0.731,5.438,1.635c0.901,0.904,1.445,2.626,1.628,5.162
						c0.358,2.902,0.043,7.158-0.953,12.772c-0.997,5.616-2.309,10.599-3.936,14.946c-0.908,1.998-0.458,3.084,1.358,3.262
						c1.443,0,5.524-0.269,12.229-0.818c9.418-1.085,16.032-1.902,19.837-2.443c3.804-0.541,16.305-1.903,37.502-4.079
						c15.763-1.809,25.314-2.717,28.67-2.717c3.353,0,5.748,0.908,7.203,2.717c2.531,3.812,3.08,6.843,1.626,9.104
						c-1.448,2.268-5.886,5.031-13.315,8.289c-11.416,5.261-25.318,8.973-41.713,11.144c-16.395,2.177-38.724,3.262-66.987,3.262
						c-21.191,0-34.92-0.225-41.169-0.679c-6.252-0.451-11.103-1.496-14.542-3.124c-9.96-5.073-12.227-10.603-6.793-16.581
						c1.63-1.803,4.032-2.941,7.205-3.395c3.164-0.451,10.365-0.68,21.604-0.68c0.72,0,1.81,0,3.261,0c4.89,0,8.328,0,10.326,0
						c1.991,0,4.21-0.225,6.657-0.68c2.443-0.449,3.985-0.904,4.619-1.361c0.633-0.446,1.402-1.531,2.311-3.259
						c0.901-1.717,1.498-3.305,1.766-4.758c0.272-1.444,0.588-3.889,0.952-7.331c0.178-1.269,0.36-2.178,0.539-2.722
						c1.091-7.246,2.723-12.043,4.898-14.401C379.397,191.564,382.655,190.479,387.006,191.016z M423.011,94.413
						c2.266,2.443,3.4,9.195,3.4,20.244c0,7.064-0.315,12.229-0.952,15.491c-0.631,3.262-2.132,6.978-4.485,11.139
						c-3.983,7.25-7.027,12.186-9.101,14.811c-2.082,2.631-5.391,5.668-9.916,9.105c-4.893,3.621-10.466,5.707-16.714,6.248
						c-6.252,0.549-11.005-0.632-14.272-3.535c-3.26-2.713-4.711-7.963-4.348-15.754c0.364-7.791,2.354-14.133,5.982-19.03
						c2.535-3.802,7.697-9.326,15.492-16.572c7.786-7.246,15.212-13.592,22.278-19.024
						C416.531,93.011,420.747,91.964,423.011,94.413z M405.486,127.972c-1.816,0.541-4.982,3.356-9.509,8.422
						c-2.725,3.085-4.942,5.979-6.66,8.7c-1.728,2.716-2.4,4.442-2.038,5.16c0.904,1.09,2.439,1.225,4.615,0.412
						c2.177-0.814,4.53-2.493,7.064-5.031c2.535-2.536,4.351-5.065,5.441-7.605C407.658,130.598,408.022,127.245,405.486,127.972z"
						/>
					<path fill="#F44502" d="M644.651,123.69c1.803,5.614-1.225,11.004-9.106,16.168c-7.882,5.162-21.157,10.46-39.815,15.894
						c-14.853,4.175-25.093,7.25-30.708,9.244c-3.625,1.453-13.858,4.438-30.707,8.967c-15.402,3.803-30.073,5.619-44.024,5.434
						c-10.508,0-18.031-0.631-22.56-1.898c-4.525-1.268-6.792-3.262-6.792-5.979c0-2.354,2.043-4.214,6.121-5.572
						c4.071-1.357,12.269-3.032,24.594-5.03c5.436-0.719,10.009-1.397,13.726-2.038c3.711-0.631,7.558-1.357,11.545-2.172
						c3.979-0.816,8.428-1.855,13.314-3.127c4.893-1.263,10.146-2.625,15.763-4.074c5.61-1.45,13.044-3.439,22.282-5.979
						c22.647-6.155,38.05-10.554,46.2-13.181c8.152-2.626,13.583-4.844,16.309-6.656
						C638.215,118.251,642.835,118.251,644.651,123.69z M573.993,179.128c4.343,0,7.562,1.899,9.648,5.707
						c2.079,3.801,2.711,8.694,1.902,14.673c-0.819,5.982-3.036,11.783-6.661,17.394c-1.631,2.718-3.082,6.025-4.349,9.919
						c-1.266,3.896-1.995,7.068-2.171,9.512c-0.186,2.444,0.176,3.851,1.084,4.215c0.546,0,3.575-1.043,9.104-3.129
						c5.523-2.08,11.775-4.528,18.751-7.336c6.976-2.809,12.727-5.208,17.257-7.202c3.262-1.449,5.479-2.216,6.66-2.31
						c1.177-0.092,2.396,0.679,3.665,2.31c1.445,1.812,1.219,3.987-0.679,6.522c-1.899,2.535-5.343,5.213-10.322,8.016
						c-4.991,2.809-11.008,5.572-18.073,8.289c-7.436,2.902-12.772,5.304-16.036,7.198c-3.261,1.907-5.979,4.308-8.152,7.206
						c-4.348,5.979-7.881,10.643-10.6,13.999c-2.716,3.344-5.207,5.882-7.471,7.604c-2.267,1.722-4.85,3.124-7.745,4.214
						c-8.695,3.621-16.853,4.396-24.454,2.31c-7.614-2.08-11.421-6.021-11.421-11.817c0-4.17,2.132-8.201,6.389-12.099
						c4.253-3.894,11.183-8.284,20.791-13.177l15.488-7.336v-11.145c0-7.067,1.358-13.859,4.076-20.387
						c1.086-2.891,1.947-5.248,2.579-7.06c0.634-1.81,0.771-2.722,0.41-2.722c-1.633,0-5.572,1.865-11.824,5.572
						c-6.248,3.715-10.826,6.93-13.721,9.65c-3.987,3.621-7.337,5.39-10.057,5.299c-2.711-0.091-5.252-2.219-7.605-6.389
						c-1.634-3.08-2.224-5.16-1.768-6.251c0.449-1.086,2.759-3.529,6.93-7.337c5.432-4.706,13.946-9.962,25.544-15.763
						C562.755,181.846,570.365,179.128,573.993,179.128z M543.554,57.107c1.09-0.363,2.447,0.186,4.077,1.63
						c1.446,1.453,2.175,3.036,2.175,4.754c0,1.727-0.639,5.122-1.905,10.191c-1.627,7.61-2.086,12.597-1.359,14.95
						c0.904,2.535,4.485,3.625,10.737,3.258c6.252-0.36,14.268-2.077,24.051-5.162c7.61-2.535,12.456-3.85,14.538-3.939
						c2.077-0.091,3.67,0.679,4.756,2.313c1.808,2.168,2.583,3.803,2.311,4.888c-0.273,1.085-1.771,3.083-4.482,5.979
						c-8.335,9.24-22.108,13.951-41.312,14.128c-9.603,0-16.756-1.086-21.464-3.257c-4.716-2.177-8.068-5.982-10.057-11.416
						c-1.627-4.525-1.319-10.097,0.951-16.711c2.266-6.614,5.57-12.003,9.918-16.169C540.11,59.278,542.468,57.47,543.554,57.107z
						 M550.896,259.566c-1.455,0.545-3.718,1.536-6.798,2.994c-11.238,5.791-16.125,10.865-14.678,15.217
						c0.724,1.45,1.451,2.215,2.176,2.311c0.724,0.092,2.081-0.41,4.08-1.496c2.895-1.459,7.107-4.758,12.636-9.92
						c5.523-5.164,8.287-8.289,8.287-9.374C556.599,257.664,554.696,257.754,550.896,259.566z"/>
					<g>
						<path fill="#F44502" d="M763.841,145.534c4.381,0.806,4.999,10.525,1.851,29.187c-1.787,10.369-2.95,21.135-3.495,32.296
							c-0.827,14.673-2.056,28.554-3.699,41.628c-1.648,13.076-3.085,20.811-4.313,23.203c-1.376,2.391-3.6,3.75-6.683,4.07
							c-3.081,0.32-5.446-0.637-7.09-2.877c-1.1-1.436-1.681-7.57-1.75-18.419c-0.069-10.841,0.378-18.182,1.333-22.009
							c0.556-2.072,0.279-3.107-0.817-3.107c-1.37,0.156-5.821,2.865-13.354,8.129c-9.732,7.025-22.887,14.756-39.464,23.207
							c-16.577,8.457-28.153,13.476-34.731,15.076c-4.521,0.952-7.88,0.952-10.076,0c-1.777-0.8-3.074-2.357-3.899-4.667
							c-0.824-2.311-0.824-4.188,0-5.624c2.058-3.508,21.512-13.795,58.367-30.859c7.397-3.509,16.406-8.293,27.026-14.354
							c10.616-6.061,16.611-9.889,17.978-11.485c0.827-0.956,3.085-9.884,6.783-26.794c1.923-8.769,3.462-15.469,4.63-20.094
							c1.158-4.623,2.224-8.133,3.18-10.523c0.964-2.393,2.059-4.071,3.292-5.027C760.002,145.69,761.646,145.374,763.841,145.534z"
							/>
						<path fill="#F44502" d="M707.829,162.626c-0.273-1.714-1.315-3.205-3.128-4.482c-7.244-5.61-15.94-4.161-26.088,4.349
							c-2.899,2.539-5.704,5.666-8.422,9.373c-2.717,3.717-5.123,7.657-7.203,11.822c-2.081,4.17-3.582,8.154-4.483,11.965
							c-1.63,6.888,0.093,12.632,5.162,17.252c5.07,4.619,10.963,5.844,17.667,3.673c4.524-1.45,8.327-3.808,11.41-7.064
							c3.264-3.443,6.295-8.743,9.107-15.901c2.807-7.154,4.573-14.089,5.303-20.794
							C707.873,167.752,708.102,164.355,707.829,162.626z M690.301,186.141c-3.083,6.52-5.979,10.957-8.69,13.314
							c-1.276,1.086-2.089,1.631-2.452,1.631c-0.545,0-0.363-1.631,0.546-4.896c1.807-7.605,5.16-14.133,10.056-19.565
							c1.805-1.989,3.163-3.075,4.076-3.258C696.184,172.817,695.009,177.078,690.301,186.141z"/>
					</g>
				</g>
				<g>
					<path fill="#F44502" d="M934.635,178.385c3.893-5.611,7.293-13.314,10.188-23.1c2.181-7.064,4.982-12.225,8.422-15.486
						c1.995-2.176,3.626-3.444,4.896-3.807c1.269-0.363,2.724-0.086,4.349,0.813c2.898,1.635,4.348,3.988,4.348,7.063
						c0,4.175-1.224,11.736-3.667,22.694c-2.444,10.961-4.757,19.799-6.93,26.5c-3.083,8.148-4.984,20.923-5.708,38.316
						c-0.548,10.508-1.181,18.16-1.901,22.962c-0.725,4.806-1.899,8.249-3.534,10.321c-1.628,2.09-4.071,3.223-7.334,3.4
						c-2.542,0.186-4.619-0.092-6.249-0.809c-1.637-0.727-3.358-2.176-5.166-4.353c-2.176-2.897-3.444-5.749-3.804-8.561
						c-0.371-2.808-0.185-9.737,0.542-20.79l1.358-23.373L934.635,178.385z"/>
					<path fill="#F44502" d="M1002.177,210.59c2.229,3.08,3.149,5.434,2.753,7.064c-0.395,1.631-2.427,3.443-6.096,5.437
						c-3.408,1.995-8.059,4.214-13.955,6.659c-5.896,2.443-11.338,4.441-16.316,5.977c-4.979,1.541-7.86,2.133-8.647,1.766
						c-2.891-1.445-3.997-4.572-3.345-9.375c0.654-4.797,2.687-8.738,6.096-11.822c2.362-2.176,6.883-4.346,13.565-6.521
						C990.116,205.611,998.774,205.879,1002.177,210.59z"/>
					<path fill="#F44502" d="M1059.097,135.72c3.085,3.988,4.218,16.806,3.396,38.456c-0.814,21.65-3.029,35.189-6.657,40.623
						c-1.451,2.176-3.492,4.309-6.113,6.389c-2.626,2.086-5.438,3.764-8.423,5.027c-2.993,1.268-5.573,1.902-7.747,1.902
						c-3.439,0-7.247-2.582-11.412-7.746c-4.17-5.162-8.067-12-11.687-20.514c-3.63-8.876-5.435-18.934-5.435-30.168
						c0-8.328,0.221-13.357,0.676-15.08c0.453-1.721,2.224-3.309,5.309-4.758c2.889-1.45,4.838-2.081,5.837-1.904
						c0.996,0.182,2.313,1.359,3.942,3.535c1.81,2.175,3.305,2.95,4.48,2.311c1.18-0.637,4.219-3.846,9.105-9.648
						C1045.236,131.826,1053.482,129.023,1059.097,135.72z M1045.786,159.904c-0.55-1.631-3.176,1-7.883,7.883l-7.063,10.324
						l2.444,14.951c1.445,9.421,2.622,14.672,3.536,15.758c2.894,2.903,5.341-4.438,7.33-22.01l0.277-2.989
						C1045.877,169.512,1046.327,161.539,1045.786,159.904z M1170.521,241.706c2.171,0.545,3.031,2.854,2.582,6.929
						c-0.454,4.075-1.95,7.652-4.486,10.737c-3.628,4.17-10.325,8.824-20.11,13.993c-9.781,5.162-19.839,9.192-30.164,12.092
						c-19.205,5.796-39.856,5.16-61.957-1.899c-7.972-2.535-13.182-5.208-15.63-8.016c-2.448-2.813-2.405-6.212,0.139-10.196
						c1.808-2.712,4.21-4.305,7.202-4.754c2.984-0.45,6.018,0.316,9.106,2.31c3.621,2.177,10.14,3.984,19.561,5.438
						c19.743,3.444,43.211-1.903,70.386-16.035C1161.458,245.063,1169.248,241.528,1170.521,241.706z M1172.013,126.479
						c1.539-1.449,3.577-2.171,6.113-2.171c2.534,0,4.212,0.273,5.029,0.813c0.813,0.544,1.223,1.812,1.223,3.807
						c0,3.802-1.316,9.422-3.938,16.845c-2.63,7.436-5.571,14.132-8.833,20.11c-6.52,11.416-12.321,25.82-17.395,43.211
						c-1.813,5.437-4.256,11.233-7.337,17.394c-2.175,4.343-3.946,7.159-5.3,8.423c-1.357,1.271-3.394,1.902-6.11,1.902
						c-2.903,0-4.716-0.406-5.438-1.225c-0.726-0.813-1.091-3.027-1.091-6.656c0-4.707,0.816-10.326,2.448-16.85
						c1.63-6.336,2.171-9.781,1.63-10.326c-0.904-0.722-6.565,1.088-16.983,5.434c-10.419,4.353-16.709,7.432-18.886,9.24
						c-2.538,2.543-6.025,3.629-10.464,3.262c-4.442-0.363-7.379-1.809-8.834-4.347c-1.63-3.263-0.813-6.156,2.453-8.7
						c3.254-2.53,13.489-8.24,30.705-17.116c13.766-7.246,22.594-12.272,26.495-15.085c3.895-2.807,7.921-7.197,12.091-13.181
						c5.979-8.153,11.233-16.481,15.764-24.998C1168.252,131.194,1170.473,127.933,1172.013,126.479z M1123.779,143.462
						c3.436-0.086,6.15,1.406,8.152,4.486c3.078,4.17,4.077,7.292,2.992,9.375c-1.09,2.084-4.625,4.039-10.607,5.845
						c-8.15,2.538-14.941,5.8-20.38,9.784c-5.073,3.803-8.653,5.844-10.727,6.112c-2.09,0.272-4.399-0.856-6.935-3.396
						c-4.347-3.803-4.754-7.881-1.225-12.229c3.535-4.348,11.096-9.24,22.694-14.673
						C1114.985,145.323,1120.332,143.558,1123.779,143.462z"/>
				</g>
				<g>
					<path fill="#F44502" d="M866.517,147.131c4.947-0.342,8.378,0.177,10.29,1.566c1.734,1.042,3.297,3.17,4.69,6.384
						c1.39,3.214,2.083,6.208,2.083,8.985c0,2.607-1.781,10.684-5.336,24.233c-3.564,13.543-6.385,22.84-8.47,27.874
						c-2.955,7.472-11.036,14.505-24.229,21.103c-8.86,4.519-12.856,7.388-11.982,8.595c0.518,0.701,2.691,0.701,6.514,0
						c7.987-1.561,20.314-7.289,36.991-17.195c3.815-2.254,8.556-4.641,14.197-7.158c5.645-2.518,11.202-4.776,16.675-6.774
						c5.473-1.999,10.769-3.776,15.892-5.343c5.118-1.563,9.12-2.514,11.985-2.867c2.868-0.348,4.468-0.084,4.822,0.781
						c0,1.566-1.134,3.608-3.391,6.122c-2.259,2.525-5.387,5.169-9.379,7.95c-3.994,2.773-8.422,5.383-13.288,7.813
						c-11.633,5.904-23.534,12.679-35.687,20.321c-11.292,7.125-20.632,11.939-28.007,14.457
						c-7.389,2.522-14.375,3.258-20.973,2.215c-3.999-0.519-6.864-1.307-8.599-2.345c-1.738-1.038-3.387-2.868-4.948-5.472
						c-3.828-6.25-4.473-11.373-1.956-15.37c2.518-3.991,10.032-9.812,22.537-17.454l17.19-10.42l1.308-11.204
						c1.214-8.336,2.695-15.979,4.428-22.928c0.516-2.085,0.948-3.991,1.3-5.73c0.35-1.735,0.61-3.167,0.777-4.301
						c0.183-1.124,0.183-1.69,0-1.69c-0.341,0-4.251,2.392-11.718,7.163c-7.471,4.78-11.857,7.167-13.154,7.167
						c-1.303,0-2.695-1.345-4.171-4.04c-1.48-2.69-2.21-5.251-2.21-7.687c0-2.084,2.688-5.555,8.071-10.421
						c5.382-4.858,10.682-8.683,15.894-11.459C857.619,148.436,861.563,147.485,866.517,147.131z"/>
				</g>
			</g>
			<g>
				<g>
					<path fill="#F44502" d="M1117.905,63.067c-0.167,0.238-0.314,0.501-0.437,0.796c-2.008,3.949-7.764,13.769-17.277,29.467
						c-9.512,15.694-15.084,24.583-16.714,26.66c-1.869,2.262-3.158,3.608-3.868,4.036c-0.709,0.423-1.566,0.368-2.561-0.187
						c-1.351-0.891-1.501-2.716-0.464-5.477c1.03-2.76,4.197-8.889,9.495-18.394c5.36-9.858,9.915-18.963,13.666-27.317
						c8.21-18.471,15.68-32.283,22.415-41.419c3.842-5.226,7.492-11.342,10.963-18.354c2.099-4.071,3.674-6.913,4.716-8.543
						c1.051-1.627,2.058-2.687,3.022-3.176c1.712-0.986,2.874-0.787,3.456,0.594c0.583,1.375,0.675,4.104,0.269,8.184
						c-0.401,4.07-1.378,7.851-2.941,11.324c-1.557,3.47-4.688,8.816-9.417,16.04l-5.235,8.341L1117.905,63.067z"/>
				</g>
				<g>
					<path fill="#F44502" d="M1149.648,47.274l5.784-7.726c4.97-6.896,8.736-11.597,11.306-14.124
						c2.563-2.517,5.521-4.467,8.877-5.839c3.361-1.372,5.689-1.891,7.003-1.544c1.307,0.337,1.762,1.579,1.347,3.716
						c-0.178,1.181-0.834,2.542-1.96,4.079c-1.121,1.536-3.149,3.936-6.086,7.193c-5.097,5.446-9.395,10.901-12.879,16.374
						c-6.106,9.564-15.992,21.015-29.647,34.343c-6.164,6.073-12.771,13.211-19.817,21.417c-6.769,8.05-11.19,12.969-13.276,14.747
						c-2.089,1.773-3.672,2.015-4.759,0.722c-0.707-0.99-0.973-1.925-0.781-2.815c0.186-0.896,1.008-2.635,2.475-5.227
						c1.362-2.283,7.542-10.507,18.521-24.652c10.982-14.15,17.905-22.797,20.767-25.929c0.223-0.195,0.408-0.419,0.561-0.662
						L1149.648,47.274z"/>
				</g>
				<path fill="#F44502" d="M1151.876,89.29c-0.154-0.648-0.493-1.116-0.996-1.383c-0.5-0.273-1.175-0.355-2.023-0.244
					c-1.181-0.168-5.508,0.939-12.977,3.319c-11.706,3.971-24.212,6.959-37.513,8.967c-4.479,0.757-8.441,1.268-11.896,1.535
					c-3.449,0.269-6.421,0.36-8.903,0.264c-2.497-0.091-4.468-0.424-5.93-1c-1.795-0.553-2.835-1.033-3.111-1.44
					c-0.288-0.402-0.288-1.22-0.024-2.443c0.518-1.419,2.447-4.131,5.782-8.137c0.739-0.888,1.496-1.808,2.267-2.76
					c0.774-0.952,1.476-1.934,2.12-2.937c0.632-1.004,1.288-1.965,1.966-2.877c0.676-0.917,1.313-1.848,1.927-2.79
					c3.866-6.449,4.179-11.42,0.939-14.906c-1.731-2.007-4.642-3.374-8.73-4.089c-4.222-0.774-9.396-0.882-15.506-0.333
					c-3.129,0.251-6.296,0.667-9.5,1.255c-1.684,0.306-3.4,0.657-5.143,1.046c-6.56,1.874-13.104,3.803-19.686,5.818
					c-8.499,2.604-15.923,5.451-23.596,9.911c-4.214,2.445-8.534,5.922-13.077,8.232c-0.526,0.394-1.073,0.809-1.579,1.185
					c-1.013,0.744-1.999,1.41-2.95,2.007c-0.951,0.602-1.773,1.112-2.451,1.541c-0.685,0.428-1.303,0.748-1.865,0.951l-2.99,0.796
					l-0.409,0.256l-0.054-0.403l-0.418-10.126c-0.342-3.76-0.744-6.899-1.216-9.417c-0.476-2.518-1.086-4.408-1.833-5.672
					c-1.365-2.539-4.056-4.027-8.09-4.459c-5.215-0.411-13.179,5.165-23.919,16.731c-3.607,4.002-6.056,6.688-7.349,8.077
					c-1.444,1.41-2.259,1.92-2.452,1.543c-0.178-0.25,0.42-4.195,1.786-11.843c0.843-3.776,1.381-6.97,1.634-9.582
					c0.252-2.613,0.287-4.65,0.095-6.121c-0.258-2.002-0.574-3.322-0.945-3.954c-0.205-0.381-0.537-0.749-1.024-1.09
					c-0.49-0.342-1.125-0.736-1.922-1.177c-0.952-0.553-1.854-0.947-2.69-1.181c-0.846-0.229-1.554-0.311-2.13-0.238
					c-1.322,0.039-3.521,0.727-6.582,2.072c-7.004,2.808-18.373,11.736-34.109,26.802c-11.667,11.147-18.013,16.784-19.024,16.915
					c-0.291,0.039-0.486-0.039-0.581-0.229c-0.097-0.191-0.167-0.416-0.203-0.688c-0.12-0.934,0.018-2.716,0.42-5.346
					c0.163-0.974,0.705-4.777,1.622-11.416c0.199-0.701,0.372-1.675,0.506-2.916c0.131-1.242,0.373-2.83,0.705-4.776
					c0.073-0.549,0.148-1.137,0.222-1.756c0.059-0.623,0.147-1.142,0.237-1.562c0.092-0.419,0.161-0.765,0.199-1.043
					c0.04-0.276,0.101-0.626,0.194-1.046l-0.024-0.199c1.521-8.751,0.951-13.769-1.723-15.054c-0.307-0.095-0.61-0.19-0.918-0.29
					c-0.307-0.096-0.545-0.2-0.705-0.317c-0.163-0.112-0.317-0.193-0.47-0.242c-0.156-0.052-0.307-0.064-0.452-0.042
					c-0.432,0.052-1.196,0.424-2.282,1.103l-0.222,0.03c-0.834,0.385-1.825,1.835-2.976,4.357c-1.146,2.521-1.98,5.177-2.509,7.964
					c-0.182,0.834-1.523,6.44-4.018,16.814c-1.8,7.696-3.636,15.741-5.501,24.128c-0.038,0.187-0.072,0.381-0.103,0.567
					c0.004,0.117,0.019,0.229,0.009,0.354c-0.476,7.115,0.025,13.138,8.179,15.628c2.964,0.913,4.816,2.596,7.748,2.168
					c1.234-0.632,2.563-1.112,3.938-1.505c0.406-0.243,0.821-0.481,1.22-0.745c3.374-3.356,7.394-7.271,12.092-11.771
					c7.448-7.336,13.176-13.172,17.185-17.493l13.062-13.492c4.462-4.242,6.864-6.186,7.21-5.823
					c0.333,0.364-0.032,2.656-1.109,6.866c-0.28,1.259-0.533,2.651-0.785,4.178c-0.41,1.411-0.727,2.942-0.951,4.599
					c-0.229,1.662-0.52,3.4-0.874,5.208c-0.272,2.479-0.364,4.628-0.272,6.449c0.081,1.826,0.288,3.392,0.605,4.711
					c0.243,0.783,0.565,1.557,0.959,2.319c0.391,0.766,0.849,1.454,1.372,2.063c0.519,0.614,1.185,1.202,1.995,1.777
					c1.445,0.904,2.504,1.411,3.183,1.527c0.675,0.113,1.869-0.069,3.573-0.563c2.423-0.584,4.625-1.817,6.593-3.702
					c0.925-0.796,2.409-2.415,4.456-4.851c2.074-2.17,4.581-5,7.518-8.508c9.863-11.455,15.283-16.839,16.257-16.148
					c0.484,0.347,0.636,2.09,0.453,5.234c-0.32,6.701,0.305,11.506,1.86,14.427c1.423,3.076,4.062,5.252,7.907,6.523
					c2.456,0.767,4.95,0.922,7.463,0.458c2.517-0.458,5.065-1.535,7.647-3.222c2.439-1.674,5.039-3.776,7.804-6.303
					c0.172-0.151,0.351-0.316,0.527-0.467c0.074,0.008,0.167,0.008,0.247,0.021c3.084-2.163,6.592-3.953,10.32-5.454
					c0.274-0.174,0.576-0.325,0.948-0.438c0.334-0.095,0.663-0.186,0.986-0.285c3.694-1.358,7.57-2.466,11.489-3.383
					c3.262-0.956,6.513-1.878,9.798-2.717c14.15-5.168,23.736-8.14,28.74-8.916c2.394-0.388,4.357-0.683,5.884-0.898
					c1.522-0.212,2.746-0.286,3.666-0.227c0.457,0.035,0.759,0.157,0.898,0.355c0.146,0.204,0.156,0.433,0.033,0.68
					c-0.12,0.25-0.331,0.527-0.64,0.852c-2.197,1.946-4.884,5.247-8.054,9.906c-1.649,2.452-2.984,4.508-4.015,6.168
					c-1.034,1.67-1.722,3.02-2.062,4.066c-1.325,3.764-1.111,7.203,0.65,10.33c1.747,3.124,4.785,5.455,9.114,7.008
					c1.86,0.731,3.979,1.268,6.352,1.609c2.37,0.337,4.932,0.528,7.679,0.576c2.741,0.047,5.667-0.101,8.754-0.438
					c3.088-0.337,6.463-0.861,10.123-1.562c3.655-0.704,7.475-1.566,11.445-2.595c3.968-1.021,8.159-2.258,12.576-3.704
					c4.398-1.44,9.053-2.976,13.942-4.598c2.557-1.061,4.817-1.981,6.773-2.765c1.96-0.782,3.542-1.453,4.763-2.007
					c0.9-0.237,1.679-0.523,2.311-0.866c0.639-0.336,1.224-0.661,1.769-0.968c0.536-0.303,1-0.528,1.389-0.666
					c1.077-0.61,1.769-1.225,2.07-1.852C1152.62,91.726,1152.59,90.455,1151.876,89.29z"/>
			</g>
		</g>
		<polygon fill-rule="evenodd" clip-rule="evenodd" fill="#F44502" points="44.235,191.461 41.726,184.562 45.982,178.597 
			38.659,178.852 34.292,172.951 32.272,179.994 25.316,182.32 31.396,186.436 31.458,193.768 37.242,189.25 		"/>
		<polygon fill-rule="evenodd" clip-rule="evenodd" fill="#F44502" points="35.581,160.025 44.433,169.152 46.286,156.574 
			57.686,150.977 46.305,145.326 44.506,132.756 35.62,141.832 23.101,139.656 28.993,150.92 23.049,162.15 		"/>
		<path fill-rule="evenodd" clip-rule="evenodd" fill="#F44502" d="M267.971,159.641c-3.284-65.864-54.341-121.42-124.558-127.277
			c-5.442,0.004-10.894,0.013-16.339,0.013C60.099,35.884,5.582,87.646-0.219,156.938c0.023,5.892,0.05,11.783,0.067,17.675
			c4.104,65.038,53.917,119.201,123.181,125.884c5.894,0.018,11.79,0.032,17.678,0.049c66.591-3.427,121.546-55.041,127.267-124.557
			C267.973,170.538,267.971,165.092,267.971,159.641z M133.515,291.413C64.958,291.941,9.464,236.112,8.921,166.082
			C8.389,97.54,64.352,41.927,134.272,41.503c68.663-0.41,124.017,55.267,124.587,125.337
			C259.423,235.347,203.542,290.885,133.515,291.413z"/>
		<path fill-rule="evenodd" clip-rule="evenodd" fill="#F44502" d="M198.371,123.334c-6.081-0.229-5.055,7.177-5.216,11.853
			c-0.134,4.079-0.549,10.075,4.854,10.048c5.221-0.026,4.014-5.961,4.488-10.253C201.565,131.017,203.33,123.525,198.371,123.334z"
			/>
		<path fill-rule="evenodd" clip-rule="evenodd" fill="#F44502" d="M178.123,129.646c1.143,0.701,2.146-0.03,2.929-0.891
			c5-5.464,11.265-8.777,18.315-10.767c1.057-0.299,2.198-0.602,2.497-2.038c-0.122-1.307-0.982-1.708-2.243-1.804
			c-4.709-0.393-19.417,8.141-21.688,12.592C177.389,127.794,176.896,128.884,178.123,129.646z"/>
		<path fill-rule="evenodd" clip-rule="evenodd" fill="#F44502" d="M222.795,135.04c2.756-5.753,4.877-11.679,4.275-18.167
			c-0.598-6.493-2.843-10.996-10.554-12.476c-11.504-2.207-22.651-6.125-30.646-15.625c-1.951-2.324-3.495-2.046-5.554-0.1
			c-7.108,6.718-11.853,14.664-13.144,24.45c-1.142,8.763-1.819,9.261-10.55,6.44c-2.336-0.76-4.662-1.7-6.796-2.906
			c-13.891-7.817-20.724-25.756-14.643-37.989c0.811-1.64,3.759-3.266,1.731-5.096c-2.108-1.904-4.095,0.874-5.74,2.003
			c-19.343,13.283-27.985,32.815-31.187,55.162c-1.184,8.223-2.103,16.434-4.648,24.375c-4.957,15.451-3.978,29.588,6.753,43.012
			c3.573,4.474,10.367,10.001,5.273,17.887c-1.476,1.99-2.657,5.144-5.206,0.731c-0.979-1.7-2.438-3.465-4.123-4.352
			c-9.292-4.892-17.327-11.005-22.059-20.708c-1.595-2.348-0.625-3.893,1.22-5.736c5.368-5.354,4.717-7.609-2.496-9.919
			c-8.659-2.772-10.627-11.511-3.93-17.666c1.308-1.207,2.889-2.12,4.347-3.175c6.114-4.396,6.167-6.354,0.286-10.888
			c-12.507-9.655-15.616-22.01-9.021-36.32c3.506-7.605,8.189-14.439,14.214-20.284c7.404-7.172,14.896-14.244,22.345-21.369
			c1.294-0.878,2.522-1.895,3.891-2.631c1.834-0.981,2.972-2.353,2.055-4.326c-1.003-2.162-3.084-1.483-4.717-0.886
			c-32.566,11.96-56.984,32.759-70.521,65.272c-0.563,1.354-2.833,3.201,0.216,4.348c2.108,0.795,2.984-0.463,3.932-2.402
			c3.353-6.856,6.608-13.833,10.711-20.24c10.83-16.904,25.569-29.29,44.385-36.639c-0.344,3.906-3.905,5.261-6.204,7.467
			c-9.778,9.36-19.171,18.955-24.425,31.776c-6.01,14.665-3.305,27.776,8.159,36.925c4.547,3.63,5.907,5.801-0.213,9.214
			c-5.533,3.08-7.945,8.53-6.914,14.92c1.018,6.328,5.274,9.594,11.359,10.792c0.577,0.118,1.079,0.614,1.741,1.004
			c-1.162,2.89-4.685,3.756-5.265,6.826c-4.899-0.991-9.794-3.104-14.729-0.13c-7.899,5.035-8.967,11.78-2.068,19.432
			c3.812,4.239,4.897,8.998,5.302,14.047c0.365,4.623-0.278,9.322-0.479,13.988c-2.624-0.385-3.377-2.732-4.586-4.516
			c-5.174-7.609-10.28-15.266-15.359-22.939c-0.712-1.068-1.006-2.752-2.777-1.942c-1.294,0.584-2.007,1.912-1.646,3.361
			c0.315,1.28,0.847,2.573,1.552,3.69c6.808,10.757,14.735,20.689,22.647,30.635c0.953,1.068,2.119,3.274,3.389,1.964
			c1.912-1.964,3.119-4.772,1.024-7.631c0.002-0.009,0.002-0.009,0.002-0.009c-2.276-11.32,0.888-19.83,12.434-23.994
			c7.71-2.154,14.966-1.865,21.165,3.992c0.779,0.734,1.884,1.428,1.546,2.721c-0.387,1.445-1.776,0.986-2.792,1.189
			c-4.514,0.912-9.01,1.924-13.548,2.656c-1.73,0.276-3.255,0.381-2.792,2.612c0.49,2.35,2.332,1.536,3.755,1.272
			c4.594-0.854,9.172-1.805,13.757-2.721c5.632-1.121,11.565,4.585,10.967,10.364c-0.202,1.945-1.34,1.873-2.693,2.12
			c-4.104,0.743-8.188,1.617-12.277,2.456c-1.222,0.251-3.02,0.052-2.417,2.151c0.38,1.326,1.172,2.119,2.972,1.508
			c3.344-1.115,7.126-0.381,10.333-2.258c8.113-1.471,4.876,4.75,5.605,8.279c-1.554,5.611-2.551,11.658-9.587,13.242
			c-1.591,0.354-3.138,0.346-3.108,2.592c0.026,2.127,1.817,2.573,3.121,2.906c4.985,1.285,10.054,2.244,15.075,3.379
			c43.434,9.806,77.729-6.33,106.461-37.77c5.968-6.531,5.592-6.834-1.515-12.42c-1.034-0.807-1.735-2.027-2.591-3.053
			c1.014-5.623,6.275-7.323,9.826-10.577c4.366-3.997,4.076-7.056-1.089-9.884c-12.857-7.039-12.951-8.094-1.513-17.542
			c0.349-0.286,0.693-0.569,1.036-0.868c7.605-6.697,7.247-12.074-1.163-17.707c-8.254-5.527-9.338-8.941-5.628-18.039
			C220.016,141.188,221.343,138.076,222.795,135.04z M72.722,212.264c-0.03-0.025-0.06-0.025-0.091-0.057
			c-0.021,0.065-0.039,0.117-0.059,0.179c-3.11,0.64-6.225,3.179-9.307,4.252c-0.906-5.542-4.307-9.712-7.624-14.051
			c-3.067-4.001-2.606-7.933,0.988-11.079c0.537-0.362,1.101-0.738,1.238-0.968c6.525-0.913,11.628,1.53,15.926,6.367
			C79.242,203.046,79.083,206.566,72.722,212.264z M124.01,218.735c-6.744,5.243-7.566,11.844-2.552,17.213
			c-0.814,0.904-3.437,3.391-4.306,4.256l-0.004-0.009c-3.3,0.156-3.411-2.149-4.315-3.897c-2.634-5.077-5.297-9.089-5.725-14.968
			c3.86-1.855,3.877-9.992,7.562-11.951C114.347,210.262,122.77,214.297,124.01,218.735z M129.306,229.719
			c0.005,0.031-0.005,0.051-0.002,0.086c-1.72,1.324-3.433,2.652-5.147,3.984c-0.549-0.459-1.393-1.284-1.455-1.255
			c-1.575-1.458-2.372-2.686-2.33-3.987c-0.32,2.482-0.308,1.89,0.162-0.861c0.443-1.527,4.888-5.9,4.925-6.057
			c4.983-6.341,7.613,2.064,12.962,1.281c-3.75,2.828-6.378,4.818-9.004,6.809C129.377,229.706,129.35,229.728,129.306,229.719z
			 M120.537,227.668c0.227-1.311,0.552-2.604,1.043-3.885C121.104,225.064,120.764,226.357,120.537,227.668z M163.676,267.547
			c-19.12,5.443-38.22,3.189-57.756-1.752c3.867-4.672,5.907-9.962,7.506-15.451c0.413-0.45,0.829-0.908,1.242-1.358
			c-0.003-0.021-0.01-0.043-0.01-0.065c1.572-1.344,2.869-3.443,5.658-6.017l0,0c4.675-3.235,7.079-8.803,12.024-11.757
			c8.576-6.844,21.276-0.135,26.593,8.249c0.982,4.296,3.016,6.792,8.047,7.228c4.948,0.438,9.776,0.537,14.669-0.021
			c10.823-1.232,20.422-6.125,30.341-10.074C199.047,251.783,182.816,262.115,163.676,267.547z M221.319,164.775
			c7.662,5.234,7.763,7.623,0.521,13.518c-1.396,1.134-2.859,2.189-4.242,3.35c-7.352,6.146-6.406,13.924,2.183,18.193
			c7.351,3.643,7.303,3.59,0.978,8.781c-2.04,1.684-4.541,3.072-5.589,5.615c-1.883,3.379-2.549,7.912-1.493,9.451
			c1.831,2.674,4.772,1.955,3.805,4.49c-0.369,0.888,0.119,1.056-2.701,2.229c-0.069,0.03-0.167,0.177-0.245,0.233
			c-0.021-0.022-0.025-0.039-0.054-0.057c-13.002,6.627-26.113,12.97-41.219,12.792c-9.141-0.104-11.084-1.998-11.395-10.906
			c0.342-2.141,7.397-4.52,0.476-6.314c-16.377-4.23-32.263-9.348-46.066-19.528c-6.067-4.735-11.018-10.583-15.244-16.861
			c-4.814-7.171-6.404-15.417-3.87-23.869c4.267-14.231,5.354-29.004,8.057-43.491c2.427-13.017,8.589-24.558,17.305-34.653
			c1.548-1.792,3.215-3.665,5.596-2.917c2.644,0.835,1.146,3.504,1.253,5.299c1.107,19.086,16.852,34.365,35.526,34.503
			c4.313,0.03,6.536-0.536,5.943-6.008c-1.033-9.478,3.15-17.468,9.274-24.51c1.648-1.9,2.766-2.833,5.19-0.45
			c8.142,7.985,18.556,11.81,29.381,14.201c6.631,1.467,8.968,5.235,8.752,11.455c-0.143,4.113-1.251,7.968-2.915,11.709
			c-1.93,4.309-3.89,8.609-5.637,13C211.078,153.586,212.794,158.953,221.319,164.775z"/>
		<path fill-rule="evenodd" clip-rule="evenodd" fill="#F44502" d="M173.936,158.217c-5.182,0.866-9.377,4.322-9.096,9.35
			c0.424,7.586-3.98,7.054-8.7,6.799c-1.982-0.1-3.927-0.813-5.885-1.254c-1.269-0.276-2.809-0.986-3.309,0.879
			c-0.445,1.695,1.094,2.245,2.313,2.768c2.736,1.173,5.596,1.704,7.931,1.471c8.093,0.009,14.64-2.733,21.055-6.229
			c4.131-2.254,4.425-5.209,2.945-9.037C179.9,159.633,177.521,157.62,173.936,158.217z M170.193,171.463
			c-2.184,0.398-2.249-1.781-1.887-3.373c0.762-3.354,2.762-5.746,6.31-6.104c2.729-0.276,2.927,2.185,3.728,3.897
			C176.608,169.525,173.448,170.861,170.193,171.463z"/>
		<path fill-rule="evenodd" clip-rule="evenodd" fill="#F44502" d="M130.116,124.723c-2.071,0-3.753,1.605-3.753,3.582v14.791
			c0,1.98,1.682,3.585,3.753,3.585c2.076,0,3.762-1.605,3.762-3.585v-14.791C133.878,126.328,132.192,124.723,130.116,124.723z"/>
	</g>
</g>
</svg>
